name processed_emg_signals
nRows=48
nColumns=7
 
endheader
time	RGLTMED	RRF	RADDLONG	RST	RTA	RGM
1.74	0.1075080711202963	0.1166648410116395	0.0734079308752515	0.0599977848301646	0.0765634120271991	0.2067757597572985
1.741	0.1079232180948053	0.1156538998621455	0.072967283992451	0.0600608848426197	0.0771791429391018	0.2084540091699838
1.742	0.1083330501174478	0.1146197240883858	0.0725140491121401	0.0601270248178877	0.0777674350238838	0.2101421696191779
1.743	0.108736946818863	0.1135633426023568	0.0720487543951074	0.0601959354190013	0.0783279188783011	0.2118367166830981
1.744	0.1091342955931633	0.112485825418072	0.0715719414617403	0.0602673422347256	0.0788602668259487	0.2135341499815964
1.745	0.109524492914593	0.1113882829418107	0.0710841645242705	0.0603409661848473	0.0793641923027616	0.215230997009435
1.746	0.109906945615229	0.1102718652058774	0.0705859895106	0.0604165239468049	0.0798394492198466	0.2169238169826405
1.747	0.1102810721200116	0.1091377610455275	0.0700779931823275	0.0604937284028408	0.0802858313053082	0.2186092046960158
1.748	0.1106463036355827	0.1079871972188758	0.0695607622493957	0.0605722891068133	0.0807031714267099	0.2202837943891446
1.749	0.1110020852895587	0.1068214374697661	0.0690348924836092	0.0606519127696693	0.0810913408956574	0.2219442636175909
1.75	0.1113478772171098	0.10564178153372	0.0685009878330964	0.0607323037624791	0.0814502487559413	0.2235873371252771
1.7510000000000001	0.1116831555918048	0.1044495640872709	0.0679596595396142	0.060813164635848	0.0817798410565589	0.2252097907134384
1.752	0.1120074135979276	0.1032461536412179	0.0674115252604461	0.0608941966543809	0.0820801001110031	0.2268084551010295
1.7530000000000001	0.1123201623415876	0.1020329513786509	0.0668572081965046	0.0609751003447802	0.0823510437441259	0.2283802197710963
1.754	0.1126209316981695	0.1008113899389761	0.0662973362280843	0.06105557605605	0.0825927245279475	0.2299220367972183
1.7550000000000001	0.1129092710937899	0.0995829321494996	0.0657325410595754	0.0611353245301365	0.0828052290077047	0.2314309246437486
1.756	0.1131847502185642	0.098349069706378	0.0651634573742846	0.061214047481231	0.082988676919349	0.2329039719332262
1.7570000000000001	0.1134469596695438	0.0971113218070022	0.0645907220004163	0.0612914481818484	0.0831432203995798	0.2343383411738353
1.758	0.1136955115213915	0.0958712337360463	0.0640149730891648	0.0613672320537238	0.0832690431892756	0.235731272439469
1.7590000000000001	0.1139300398233481	0.0946303754076995	0.063436849305815	0.061441107261528	0.0833663598309982	0.2370800869945659
1.76	0.1141502010218367	0.0933903398668414	0.0628569890347141	0.061512785307418	0.0834354148609684	0.2383821908556465
1.7610000000000001	0.1143556743091039	0.0921527417522199	0.0622760295989385	0.0615819816244354	0.0834764819957447	0.2396350782811246
1.762	0.1145461618992418	0.0909192157250105	0.0616946064954348	0.0616484161667596	0.0834898633136604	0.2408363351806675
1.7630000000000001	0.1147213892337137	0.0896914148663331	0.0611133526463226	0.0617118139947382	0.0834758884309924	0.2419836424349508
1.764	0.1148811051190207	0.0884710090475076	0.0605328976670239	0.0617719058525585	0.08343491367271	0.2430747791162646
1.7650000000000001	0.1150250817995915	0.0872596832768499	0.0599538671518141	0.061828428736281	0.0833673212375311	0.2441076256000702
1.766	0.1151531149692438	0.0860591360268163	0.0593768819774252	0.0618811264499153	0.0832735183569383	0.2450801665572937
1.7670000000000001	0.1152650237248004	0.0848710775452065	0.05880255762543	0.0619297501471518	0.0831539364476789	0.2459904938170474
1.768	0.1153606504655112	0.0836972281540022	0.0582315035241985	0.0619740588563737	0.0830090302573274	0.2468368090894115
1.7690000000000001	0.1154398607420002	0.0825393165392083	0.0576643224113305	0.0620138199866756	0.0828392770024588	0.2476174265379743
1.77	0.1155025430583277	0.0813990780349052	0.0571016097175213	0.0620488098127281	0.0826451754990509	0.2483307751917746
1.7710000000000001	0.115548608630699	0.0802782529044913	0.0565439529728238	0.0620788139365546	0.0824272452846726	0.2489754011861756
1.772	0.1155779911061096	0.0791785846219181	0.055991931236261	0.0621036277244251	0.0821860257319193	0.2495499698217868
1.7730000000000001	0.115590646243988	0.0781018181555044	0.0554461145496936	0.0621230567172258	0.0819220751523941	0.2500532674300464
1.774	0.1155865515636477	0.0770496982567483	0.0549070634167374	0.0621369170126818	0.0816359698903845	0.2504842030333661
1.7750000000000001	0.1155657059600815	0.0760239677563609	0.0543753283074214	0.0621450356177718	0.0813283034052803	0.2508418097870773
1.776	0.1155281292903995	0.0750263658695985	0.0538514491891146	0.0621472507695852	0.0809996853417711	0.251125246189987
1.7770000000000001	0.1154738619330084	0.0740586265128198	0.0533359550841641	0.0621434122229133	0.0806507405869027	0.2513337970502495
1.778	0.1154029643213958	0.0731224766329923	0.0528293636546041	0.0621333815028594	0.0802821083132499	0.2514668741936487
1.7790000000000001	0.1153155164542984	0.072219634551734	0.0523321808142371	0.0621170321209254	0.0798944410075806	0.2515240169023521
1.78	0.1152116173838969	0.0713518083253027	0.0518449003683595	0.0620942497531847	0.0794884034846489	0.2515048920739131
1.7810000000000001	0.115091384683734	0.0705206941217341	0.0513680036814135	0.0620649323794677	0.0790646718860124	0.2514092940929237
1.782	0.1149549538980653	0.0697279746161914	0.0509019593728005	0.0620289903828734	0.0786239326643431	0.2512371444109911
1.7830000000000001	0.1148024779745826	0.068975317405357	0.0504472230410315	0.0619863466095187	0.0781668815542496	0.2509884908344255
1.784	0.114634126682695	0.0682643734415482	0.050004237016294	0.0619369363890495	0.077694222531288	0.2506635065223639
1.7850000000000001	0.1144500860198098	0.0675967754870845	0.0495734301413572	0.0618807075170745	0.0772066667613594	0.2502624887007948
1.786	0.114250557608146	0.0669741365892434	0.0491552175806397	0.0618176202011656	0.0767049315430039	0.2497858570999175
1.7870000000000001	0.1140357580845824	0.0663980485760316	0.0487500006570803	0.0617476469724003	0.0761897392453232	0.2492341521238678
